<svg xmlns="http://www.w3.org/2000/svg" width="250" height="26" viewBox="0 0 194 20"><path d="M24.74 4.05c-4.71 0-8.19 3.74-8.19 7.85 0 3.81 3.1 8.07 8.19 8.07 5.13 0 8.19-4.33 8.19-8 0-4.32-3.58-7.92-8.19-7.92m0 13.31c-3.17 0-5.33-2.64-5.33-5.39 0-2.71 2.13-5.35 5.33-5.35s5.33 2.64 5.33 5.32c0 2.88-2.27 5.42-5.33 5.42M35.72 0h2.86v19.59h-2.86zM42.74 0h2.86v19.59h-2.86zM98.61 4.05c-4.71 0-8.19 3.74-8.19 7.85 0 3.81 3.1 8.07 8.19 8.07 5.13 0 8.19-4.33 8.19-8 0-4.32-3.61-7.92-8.19-7.92m0 13.31c-3.16 0-5.33-2.64-5.33-5.39 0-2.71 2.13-5.35 5.33-5.35s5.34 2.64 5.34 5.32c0 2.88-2.27 5.42-5.34 5.42M112.24 5.83h-.07V4.46h-2.65v15.09h2.86v-8.26c0-2.16.75-3.3 1.65-3.78.69-.34 1.62-.55 2.06-.55V4.05c-.72.03-2.65.1-3.85 1.78M8.15 6.66c1.93 0 3.48.96 4.41 2.33l2.17-1.72c-1.48-1.92-3.82-3.19-6.54-3.19C3.48 4.08 0 7.82 0 11.94 0 15.75 3.1 20 8.19 20c2.89 0 5.13-1.37 6.5-3.22l-2.13-1.72c-.93 1.37-2.51 2.33-4.37 2.33-3.17 0-5.33-2.64-5.33-5.38-.04-2.71 2.09-5.35 5.29-5.35M73.7 6.66c1.93 0 3.48.96 4.41 2.33l2.16-1.72a8.178 8.178 0 0 0-6.53-3.19c-4.72 0-8.19 3.74-8.19 7.86 0 3.81 3.09 8.06 8.19 8.06 2.89 0 5.12-1.37 6.5-3.22l-2.13-1.72a5.285 5.285 0 0 1-4.37 2.33c-3.17 0-5.34-2.64-5.34-5.38-.03-2.71 2.1-5.35 5.3-5.35M56.12 4.05c-4.27 0-7.78 3.39-7.78 7.92 0 4.29 3.41 7.96 7.71 7.96 2.24 0 5.44-1.1 7.02-4.49h-2.99c-.79 1.06-2.14 1.92-3.93 1.92-1.92 0-4.26-1.2-4.98-4.12h12.55c.04-.2.07-.96.07-1.44.04-4.42-3.58-7.75-7.67-7.75m-4.92 7c.14-2.2 2.17-4.43 4.89-4.43 2.75 0 4.74 2.2 4.88 4.43H51.2zM87.22 0H84.4v4.49h-2.51V7.1h2.51v12.45h2.82V7.07h2.52V4.46h-2.52z" fill="#282828"/><path d="M154.91 6.66c-3.47 0-5.19 3.01-5.19 5.38 0 2.71 2.16 5.32 5.16 5.32 2.99 0 5.26-2.44 5.26-5.32.04-3.19-2.3-5.38-5.23-5.38m5.2 12.89v-2.33h-.04c-1.1 1.85-3.09 2.71-5.12 2.71-5.1 0-8.02-3.88-8.02-7.85 0-3.68 2.61-8 8.02-8 2.1 0 4.06.86 5.12 2.54h.04V4.49h2.85v15.1h-2.85zM137.16 6.66c-2.93 0-5.23 2.19-5.23 5.38 0 2.88 2.3 5.32 5.26 5.32 3 0 5.16-2.57 5.16-5.32-.03-2.37-1.72-5.38-5.19-5.38m-7.88 12.89V.51h2.85v5.8h.07c1.1-1.37 3.03-2.26 5.13-2.26 5.37 0 7.88 4.32 7.88 7.99 0 3.98-2.86 7.86-7.88 7.86-2.2 0-4.13-.86-5.37-2.54h-.03v2.16h-2.65zM172.63 4.05c-.62 0-2.89 0-4.44 2.02h-.07V4.46h-2.64v15.09h2.85v-8.23c0-3.02 1.62-4.7 3.99-4.7 3.79 0 3.79 3.53 3.79 4.7v8.2h2.85v-8.95c-.03-1.68-.34-2.89-.96-3.88-1.1-1.61-3.03-2.64-5.37-2.64M181.48 0h2.92v10.39l5.92-5.93h3.51l-6.75 6.62 6.92 8.44h-3.34l-6.26-7.75v7.75h-2.92z" fill="#282828" fill-opacity=".5"/></svg>